<?xml version="1.0" encoding="UTF-8" standalone="no"?>
<!DOCTYPE svg PUBLIC "-//W3C//DTD SVG 1.1//EN" "http://www.w3.org/Graphics/SVG/1.1/DTD/svg11.dtd">
<svg version="1.1" xmlns="http://www.w3.org/2000/svg" xmlns:xlink="http://www.w3.org/1999/xlink" preserveAspectRatio="xMidYMid meet" viewBox="0 0 1000 800" width="1000" height="800"><defs><path d="M444.2 340.54L468.83 367.3L605.43 267.45L605.66 223.7L444.2 340.54Z" id="adr0MNdwB"></path><path d="M408 12.5L795.49 402.27L408 787.5L20.51 397.73L408 12.5Z" id="a2fteLRHWN"></path><path d="M546.64 11.09L934.41 401.14L544.36 788.91L156.59 398.86L546.64 11.09Z" id="c5V3c4bTWO"></path><path d="M335.88 223.67L606.4 515.33L605.12 223.67L645.5 223.67L645.5 573.67L605.12 573.67L335.88 282L335.88 573.67L295.5 573.67L295.5 223.67L335.88 223.67Z" id="cBn4Y8tiy"></path><path d="M335.82 223.49L375.87 266.49L376.27 323.99L605.39 574.82L555.72 574.82L376.27 376.49L376.27 574.82L335.88 574.82L335.82 223.49Z" id="b5zmPTlN6a"></path><path d="M407.22 12.5L21.63 397.5L407.22 787.5L477.63 720.5L545.63 787.5L934.63 400L547.85 12.5L476.63 80.5L407.22 12.5Z" id="aUSnI0Lkc"></path></defs><g><g><g><use xlink:href="#adr0MNdwB" opacity="1" fill="#000000" fill-opacity="1"></use><g><use xlink:href="#adr0MNdwB" opacity="1" fill-opacity="0" stroke="#000000" stroke-width="0" stroke-opacity="1"></use></g></g><g><use xlink:href="#a2fteLRHWN" opacity="1" fill="#03062c" fill-opacity="1"></use></g><g><use xlink:href="#c5V3c4bTWO" opacity="1" fill="#03062c" fill-opacity="1"></use></g><g><use xlink:href="#cBn4Y8tiy" opacity="1" fill="#fff200" fill-opacity="1"></use><g><use xlink:href="#cBn4Y8tiy" opacity="1" fill-opacity="0" stroke="#000000" stroke-width="0" stroke-opacity="1"></use></g></g><g><use xlink:href="#b5zmPTlN6a" opacity="1" fill="#000000" fill-opacity="1"></use><g><use xlink:href="#b5zmPTlN6a" opacity="1" fill-opacity="0" stroke="#000000" stroke-width="0" stroke-opacity="1"></use></g></g><g><g><use xlink:href="#aUSnI0Lkc" opacity="1" fill-opacity="0" stroke="#000000" stroke-width="5" stroke-opacity="1"></use></g></g></g></g></svg>